<svg xmlns="http://www.w3.org/2000/svg" xmlns:xlink="http://www.w3.org/1999/xlink" viewBox="0 0 287.44 192"><defs><style>.cls-1,.cls-10,.cls-3,.cls-8{fill:none;}.cls-2{clip-path:url(#clip-path);}.cls-10,.cls-3{stroke:#fff;}.cls-10,.cls-3,.cls-8{stroke-miterlimit:10;}.cls-4{fill:#10af94;}.cls-5{fill:#00b5e5;}.cls-6,.cls-7{fill:#009c9b;}.cls-13,.cls-6{opacity:0.6;}.cls-8{stroke:#00b5e5;}.cls-10,.cls-8{stroke-linecap:round;stroke-width:3px;}.cls-12,.cls-9{fill:#003843;}.cls-9{opacity:0.8;}.cls-11{fill:#fff;}.cls-13,.cls-14{fill:#030d18;}</style><clipPath id="clip-path" transform="translate(29.08 22.39)"><rect class="cls-1" width="255.12" height="141.73"/></clipPath></defs><g id="Capa_2" data-name="Capa 2"><g id="Capa_2-2" data-name="Capa 2"><g class="cls-2"><line class="cls-3" x1="36.39" y1="0.5" x2="25.86" y2="0.5"/><circle class="cls-4" cx="40.22" cy="5.98" r="18.41" transform="translate(59.73 67.89) rotate(-84.84)"/><circle class="cls-4" cx="236.77" cy="164.17" r="11.55"/><circle class="cls-4" cx="43.25" cy="56.34" r="4.98"/><path class="cls-5" d="M115.21,16.22h0a.83.83,0,0,1,1.17,0l2.5,2.5a.83.83,0,0,1,0,1.18h0a.83.83,0,0,1-1.17,0l-2.5-2.51A.82.82,0,0,1,115.21,16.22Z" transform="translate(29.08 22.39)"/><path class="cls-5" d="M118.88,16.22h0a.82.82,0,0,1,0,1.17l-2.5,2.51a.83.83,0,0,1-1.17,0h0a.83.83,0,0,1,0-1.18l2.5-2.5A.83.83,0,0,1,118.88,16.22Z" transform="translate(29.08 22.39)"/><path class="cls-5" d="M18.2,64.94h0a.85.85,0,0,1,1.18,0l2.5,2.5a.85.85,0,0,1,0,1.18h0a.85.85,0,0,1-1.18,0l-2.5-2.5A.85.85,0,0,1,18.2,64.94Z" transform="translate(29.08 22.39)"/><path class="cls-5" d="M21.88,64.94h0a.85.85,0,0,1,0,1.18l-2.5,2.5a.85.85,0,0,1-1.18,0h0a.85.85,0,0,1,0-1.18l2.5-2.5A.85.85,0,0,1,21.88,64.94Z" transform="translate(29.08 22.39)"/><circle class="cls-5" cx="42.73" cy="185.59" r="2.13"/><circle class="cls-5" cx="68.23" cy="65.88" r="3"/><circle class="cls-5" cx="54.57" cy="73.88" r="0.89"/><circle class="cls-5" cx="54.57" cy="78.56" r="0.89"/><circle class="cls-5" cx="59.13" cy="73.88" r="0.89"/><circle class="cls-5" cx="59.13" cy="78.56" r="0.89"/><circle class="cls-5" cx="45.36" cy="73.88" r="0.89"/><circle class="cls-5" cx="45.36" cy="78.56" r="0.89"/><circle class="cls-5" cx="49.91" cy="73.88" r="0.89"/><circle class="cls-5" cx="49.91" cy="78.56" r="0.89"/><path class="cls-5" d="M143.12,131.81h0a1.28,1.28,0,0,1,1.81,0l3.84,3.84a1.28,1.28,0,0,1,0,1.81h0a1.27,1.27,0,0,1-1.8,0l-3.85-3.84A1.28,1.28,0,0,1,143.12,131.81Z" transform="translate(29.08 22.39)"/><path class="cls-5" d="M148.77,131.81h0a1.28,1.28,0,0,1,0,1.81l-3.84,3.84a1.28,1.28,0,0,1-1.81,0h0a1.28,1.28,0,0,1,0-1.81l3.85-3.84A1.27,1.27,0,0,1,148.77,131.81Z" transform="translate(29.08 22.39)"/><circle class="cls-5" cx="192.42" cy="154.65" r="0.89"/><path class="cls-5" d="M164.23,136.93a.9.9,0,1,1-.89-.89A.89.89,0,0,1,164.23,136.93Z" transform="translate(29.08 22.39)"/><circle class="cls-5" cx="196.97" cy="154.65" r="0.89"/><path class="cls-5" d="M168.78,136.93a.9.9,0,1,1-.89-.89A.89.89,0,0,1,168.78,136.93Z" transform="translate(29.08 22.39)"/><circle class="cls-5" cx="183.2" cy="154.65" r="0.89"/><path class="cls-5" d="M155,136.93a.9.9,0,1,1-.9-.89A.9.9,0,0,1,155,136.93Z" transform="translate(29.08 22.39)"/><circle class="cls-5" cx="187.75" cy="154.65" r="0.89"/><path class="cls-5" d="M159.57,136.93a.9.9,0,1,1-.9-.89A.9.9,0,0,1,159.57,136.93Z" transform="translate(29.08 22.39)"/><circle class="cls-5" cx="210.83" cy="154.65" r="0.89"/><path class="cls-5" d="M182.64,136.93a.9.9,0,1,1-.89-.89A.89.89,0,0,1,182.64,136.93Z" transform="translate(29.08 22.39)"/><path class="cls-5" d="M187.19,132.26a.89.89,0,1,1-.89-.9A.89.89,0,0,1,187.19,132.26Z" transform="translate(29.08 22.39)"/><path class="cls-5" d="M187.19,136.93a.89.89,0,1,1-.89-.89A.89.89,0,0,1,187.19,136.93Z" transform="translate(29.08 22.39)"/><circle class="cls-5" cx="201.61" cy="154.65" r="0.89"/><path class="cls-5" d="M173.43,136.93a.9.9,0,1,1-.9-.89A.9.9,0,0,1,173.43,136.93Z" transform="translate(29.08 22.39)"/><circle class="cls-5" cx="206.16" cy="154.65" r="0.89"/><path class="cls-5" d="M178,136.93a.9.9,0,1,1-.89-.89A.89.89,0,0,1,178,136.93Z" transform="translate(29.08 22.39)"/><circle class="cls-6" cx="134.59" cy="89.17" r="4.46"/><path class="cls-7" d="M241.19,120.45A10.58,10.58,0,1,0,251.77,131,10.59,10.59,0,0,0,241.19,120.45Zm0,19.07a8.5,8.5,0,1,1,8.49-8.49A8.49,8.49,0,0,1,241.19,139.52Z" transform="translate(29.08 22.39)"/><line class="cls-8" x1="267.53" y1="156.72" x2="259.2" y2="165.05"/><circle class="cls-4" cx="34.61" cy="112.21" r="2.04"/><circle class="cls-4" cx="38.97" cy="107.85" r="2.04"/><path class="cls-9" d="M-.41,100.39,19.42,80.56a11.39,11.39,0,0,1,16.11,0h0a11.4,11.4,0,0,1,0,16.1l-9,9a5,5,0,0,0,0,7.07h0a5,5,0,0,0,7.07,0l2-2a10.28,10.28,0,0,1,14.53,0h0a10.28,10.28,0,0,1,0,14.53l-8.05,8a2.22,2.22,0,0,0,0,3.14h0a2.22,2.22,0,0,0,3.14,0l19.64-19.63a8.88,8.88,0,0,1,12.56,0h0a8.88,8.88,0,0,1,0,12.56l-5.3,5.31a1.93,1.93,0,0,0,0,2.74h0a1.94,1.94,0,0,0,2.75,0l.44-.44a23.82,23.82,0,0,1,33.68,0l9.08,9.08H-29.08S1.36,102.16-.41,100.39Z" transform="translate(29.08 22.39)"/><circle class="cls-5" cx="64.24" cy="119.59" r="1.89"/><line class="cls-10" x1="28.84" y1="147.66" x2="63.38" y2="113.13"/><line class="cls-10" x1="62.85" y1="185.99" x2="90.88" y2="157.96"/><line class="cls-10" x1="13.48" y1="154.17" x2="41.52" y2="126.13"/><circle class="cls-11" cx="100.86" cy="145" r="4.95"/><path class="cls-7" d="M119.75,128.48a16.93,16.93,0,1,0,16.93,16.92A16.95,16.95,0,0,0,119.75,128.48Zm0,30.51a13.59,13.59,0,1,1,13.59-13.59A13.58,13.58,0,0,1,119.75,159Z" transform="translate(29.08 22.39)"/><path class="cls-7" d="M10.38,147.12c.34-.11,13.27-13.19,18.22-18.2a2.69,2.69,0,0,1,3.81,0h0a2.69,2.69,0,0,1,0,3.8l-4.06,4.07a1.33,1.33,0,0,0,0,1.9h0a1.33,1.33,0,0,0,1.9,0L32,137a2.94,2.94,0,0,1,4.16,0h0a3,3,0,0,1,0,4.17h0a1.24,1.24,0,0,0,0,1.76l4.77,4.77H10" transform="translate(29.08 22.39)"/><line class="cls-8" x1="90.35" y1="171.51" x2="125.36" y2="136.5"/><line class="cls-8" x1="9.82" y1="190.5" x2="44.83" y2="155.5"/><line class="cls-8" x1="112.49" y1="157.15" x2="119.31" y2="150.32"/><path class="cls-6" d="M125.52-1.09l6.57,6.57a11.67,11.67,0,0,0,16.51,0l3.77-3.77a2,2,0,0,1,2.88,0l0,0a2.09,2.09,0,0,1,0,3l-11.95,12a10.63,10.63,0,0,0,0,15.05h0a10.65,10.65,0,0,0,15.06,0L194.88-4.74l8,1.09L189.63,9.63a14.84,14.84,0,0,0,0,21h0a14.84,14.84,0,0,0,21,0l20.3-20.31a2.27,2.27,0,0,1,3.2,0h0a2.27,2.27,0,0,1,0,3.2L204.05,43.58a8.38,8.38,0,0,0,0,11.86h0a8.38,8.38,0,0,0,11.86,0l20.83-20.83a2.43,2.43,0,0,1,3.42,0h0a2.42,2.42,0,0,1,0,3.43l-.36.36a17.71,17.71,0,0,0,0,25.05L255.34,79V-11.12" transform="translate(29.08 22.39)"/><circle class="cls-4" cx="236.78" cy="72.53" r="4.4" transform="translate(19.35 118.52) rotate(-22.5)"/><circle class="cls-5" cx="169.28" cy="40.23" r="4.78"/><circle class="cls-5" cx="159.68" cy="91.19" r="0.79"/><circle class="cls-5" cx="159.68" cy="95.33" r="0.79"/><circle class="cls-5" cx="163.71" cy="91.19" r="0.79"/><circle class="cls-5" cx="163.71" cy="95.33" r="0.79"/><circle class="cls-5" cx="106.79" cy="30.13" r="0.79"/><circle class="cls-5" cx="106.79" cy="34.27" r="0.79"/><circle class="cls-5" cx="110.82" cy="30.13" r="0.79"/><circle class="cls-5" cx="110.82" cy="34.27" r="0.79"/><circle class="cls-5" cx="263.9" cy="71.21" r="1.95"/><line class="cls-10" x1="254.05" y1="55.08" x2="285.94" y2="23.19"/><line class="cls-10" x1="197.07" y1="35.52" x2="213.77" y2="18.82"/><circle class="cls-7" cx="61.19" cy="130.98" r="2.09"/><circle class="cls-12" cx="272.83" cy="52.47" r="2.09"/><path class="cls-13" d="M221.22-3.63,206,11.64a3.62,3.62,0,0,0,0,5.13h0a3.62,3.62,0,0,0,5.13,0l8.16-8.16a1.25,1.25,0,0,1,1.77,0h0a1.27,1.27,0,0,1,0,1.77l-2.78,2.77a2,2,0,0,0,0,2.78h0a2,2,0,0,0,2.78,0l7.48-7.48a5.31,5.31,0,0,1,6.2-1,5.6,5.6,0,0,1,1.3,1l.2.2L250.75-5.9S221.22-3.8,221.22-3.63Z" transform="translate(29.08 22.39)"/><line class="cls-8" x1="208.7" y1="10.93" x2="179.32" y2="40.31"/><path class="cls-14" d="M237.14,9.56,236,8.45s12.35-14,12.64-14.27,8.9.94,8.9.94L243.8,9.44A4.68,4.68,0,0,1,237.14,9.56Z" transform="translate(29.08 22.39)"/></g></g></g></svg>